<svg width="24" height="24" viewBox="0 0 24 24" fill="none" xmlns="http://www.w3.org/2000/svg">
<path fill-rule="evenodd" clip-rule="evenodd" d="M11.5696 1.56965C11.2905 1.66945 11.0437 1.84523 10.8796 2.06132C10.8165 2.14434 10.2111 3.4041 9.53405 4.86074C8.85708 6.31738 8.29636 7.51799 8.28802 7.52873C8.27963 7.53946 6.98728 7.74417 5.41608 7.9836C2.2696 8.46313 2.2726 8.46238 1.92474 8.84746C1.64443 9.15773 1.54777 9.41498 1.54702 9.85293C1.54585 10.5107 1.51168 10.4662 3.867 12.8715L5.9415 14.99L5.4608 17.9262C4.941 21.1014 4.92872 21.2396 5.13094 21.6434C5.44078 22.2621 6.12914 22.5999 6.75746 22.4417C6.8865 22.4092 8.03963 21.7949 9.46721 20.9979C10.834 20.235 11.9734 19.6115 11.9993 19.6124C12.0251 19.6133 13.1642 20.2318 14.5306 20.9868C15.897 21.7418 17.1099 22.3896 17.226 22.4261C17.8407 22.62 18.5852 22.2819 18.901 21.6654C19.1201 21.2378 19.1097 21.1139 18.588 17.9389C18.3276 16.3533 18.1202 15.0318 18.1272 15.0022C18.1343 14.9725 19.0658 14.0035 20.1974 12.8489C22.5328 10.4659 22.4998 10.5089 22.4986 9.85293C22.4979 9.41498 22.4012 9.15773 22.1209 8.84746C21.7706 8.45971 21.769 8.45934 18.6853 7.99692C17.1479 7.76634 15.8672 7.5696 15.8393 7.55967C15.8115 7.54977 15.2208 6.33412 14.5268 4.85821C13.1449 1.91943 13.0912 1.82831 12.6219 1.62642C12.2846 1.48129 11.8781 1.4594 11.5696 1.56965Z" fill="#AD0C17"/>
</svg>
